<?xml version="1.0" standalone="no"?>
<!DOCTYPE svg PUBLIC "-//W3C//DTD SVG 20010904//EN"
 "http://www.w3.org/TR/2001/REC-SVG-20010904/DTD/svg10.dtd">
<svg version="1.0" xmlns="http://www.w3.org/2000/svg"
 width="260.000000pt" height="260.000000pt" viewBox="0 0 260.000000 260.000000"
 preserveAspectRatio="xMidYMid meet">

<g transform="translate(0.000000,260.000000) scale(0.100000,-0.100000)"
fill="#000000" stroke="none">
<path d="M1160 2574 c-389 -50 -727 -260 -936 -581 -80 -124 -147 -288 -180
-443 -26 -119 -26 -381 0 -500 62 -285 203 -526 422 -719 155 -137 364 -240
584 -287 119 -26 381 -26 500 0 512 110 896 494 1006 1006 26 119 26 381 0
500 -55 253 -175 476 -353 652 -182 181 -384 292 -633 349 -83 19 -331 33
-410 23z m414 -228 c370 -97 671 -397 772 -771 24 -88 28 -119 28 -255 l1
-155 -30 5 c-16 3 -89 5 -161 5 l-130 0 8 60 c16 110 -14 228 -82 336 l-30 45
15 70 c19 91 19 214 0 261 l-15 36 -61 -6 c-72 -6 -166 -49 -222 -101 l-38
-35 -77 21 c-109 29 -308 29 -406 0 l-70 -20 -44 39 c-66 58 -145 92 -217 93
-56 1 -60 -1 -74 -28 -19 -39 -20 -162 -2 -254 14 -69 13 -74 -6 -100 -71 -97
-108 -227 -98 -345 l7 -78 -49 7 c-70 11 -261 8 -313 -4 -26 -6 -49 -7 -54 -2
-5 5 -6 75 -3 157 6 178 34 299 101 438 148 304 426 523 756 594 137 30 354
24 494 -13z m-965 -1194 c24 -4 46 -13 49 -19 3 -10 -27 -13 -128 -13 -114 0
-141 -3 -207 -25 -42 -14 -77 -24 -79 -22 -2 2 -7 17 -10 35 -6 29 -5 31 32
37 22 4 44 8 49 10 18 6 249 4 294 -3z m1744 -7 c9 -4 17 -14 17 -22 0 -12 -7
-14 -27 -9 -16 4 -90 10 -166 13 -133 5 -167 16 -82 26 54 7 236 1 258 -8z
m-61 -46 c29 -6 56 -14 60 -18 11 -10 -26 -137 -67 -226 -96 -211 -272 -398
-485 -514 -41 -22 -81 -41 -87 -41 -10 0 -13 27 -13 103 0 148 -38 260 -116
347 l-36 39 29 7 c221 50 336 116 414 237 22 34 50 65 62 69 37 10 183 9 239
-3z m-1637 -5 c11 -3 34 -28 50 -56 70 -118 214 -201 418 -243 l28 -6 -47 -55
c-62 -72 -88 -84 -194 -91 -113 -7 -157 12 -231 100 -54 66 -93 93 -147 103
-56 11 -55 -8 1 -63 29 -29 69 -80 88 -114 77 -139 129 -169 291 -169 l88 0 0
-121 c0 -138 11 -129 -104 -83 -270 109 -508 352 -609 624 -41 111 -41 117 -7
135 57 30 135 44 245 44 61 0 119 -2 130 -5z m729 -610 c13 -12 16 -40 16
-140 l0 -124 -50 0 -50 0 0 124 c0 132 8 156 50 156 10 0 26 -7 34 -16z m-200
-60 c12 -12 16 -37 16 -110 l0 -95 -37 6 c-65 11 -63 8 -63 99 0 89 11 116 50
116 10 0 26 -7 34 -16z m400 0 c12 -11 16 -35 16 -89 l0 -74 -37 -10 c-64 -18
-63 -19 -63 73 0 89 11 116 50 116 10 0 26 -7 34 -16z"/>
</g>
</svg>
