<?xml version="1.0" standalone="no"?>
<!DOCTYPE svg PUBLIC "-//W3C//DTD SVG 20010904//EN"
 "http://www.w3.org/TR/2001/REC-SVG-20010904/DTD/svg10.dtd">
<svg version="1.0" xmlns="http://www.w3.org/2000/svg"
 width="219.000000pt" height="123.000000pt" viewBox="0 0 219.000000 123.000000"
 preserveAspectRatio="xMidYMid meet">

<g transform="translate(0.000000,123.000000) scale(0.100000,-0.100000)"
fill="#000000" stroke="none">
<path d="M0 615 l0 -615 1095 0 1095 0 0 615 0 615 -1095 0 -1095 0 0 -615z
m905 289 c8 -4 22 -19 31 -35 13 -26 13 -32 -1 -59 -19 -37 -41 -49 -85 -44
-41 5 -70 35 -70 74 0 50 69 85 125 64z m433 -201 c62 -47 67 -61 70 -234 l3
-159 -70 0 -70 0 -3 58 c-2 31 0 78 3 104 3 29 2 45 -4 41 -6 -4 -7 5 -3 21
10 40 -18 76 -60 76 -55 0 -64 -24 -64 -172 l0 -128 -70 0 c-38 0 -70 3 -70 8
0 4 -1 85 -3 180 -2 147 0 172 13 173 10 0 8 3 -5 9 -19 8 -19 9 3 9 12 1 22
-5 23 -11 0 -10 2 -10 6 0 3 7 24 12 51 13 26 0 67 9 92 20 54 23 121 20 158
-8z m-401 -110 c-4 -71 -7 -163 -7 -205 l0 -78 -68 0 -69 0 -6 152 c-4 83 -7
175 -7 205 l0 53 82 0 81 0 -6 -127z m203 117 c0 -6 -32 -10 -75 -10 -43 0
-75 4 -75 10 0 6 32 10 75 10 43 0 75 -4 75 -10z"/>
<path d="M855 880 c3 -5 8 -10 11 -10 2 0 4 5 4 10 0 6 -5 10 -11 10 -5 0 -7
-4 -4 -10z"/>
<path d="M906 865 c4 -8 11 -15 16 -15 6 0 5 6 -2 15 -7 8 -14 15 -16 15 -2 0
-1 -7 2 -15z"/>
<path d="M795 849 c-4 -11 -4 -23 -1 -26 3 -4 6 1 6 10 0 8 8 17 18 19 16 3
16 4 0 10 -12 5 -19 1 -23 -13z"/>
<path d="M887 845 c-4 -8 -3 -16 1 -19 4 -3 9 4 9 15 2 23 -3 25 -10 4z"/>
<path d="M921 824 c0 -11 3 -14 6 -6 3 7 2 16 -1 19 -3 4 -6 -2 -5 -13z"/>
<path d="M895 790 c3 -5 8 -10 11 -10 2 0 4 5 4 10 0 6 -5 10 -11 10 -5 0 -7
-4 -4 -10z"/>
<path d="M1190 697 c-14 -11 -14 -14 2 -30 18 -17 18 -16 14 8 -5 25 -3 26 34
24 22 -2 42 0 46 4 13 12 -80 7 -96 -6z"/>
<path d="M1290 680 c0 -5 7 -7 15 -4 8 4 15 8 15 10 0 2 -7 4 -15 4 -8 0 -15
-4 -15 -10z"/>
<path d="M1130 610 c-9 -6 -10 -10 -3 -10 6 0 15 5 18 10 8 12 4 12 -15 0z"/>
<path d="M1122 555 c0 -16 2 -22 5 -12 2 9 2 23 0 30 -3 6 -5 -1 -5 -18z"/>
<path d="M892 615 c0 -16 2 -22 5 -12 2 9 2 23 0 30 -3 6 -5 -1 -5 -18z"/>
<path d="M911 604 c0 -11 3 -14 6 -6 3 7 2 16 -1 19 -3 4 -6 -2 -5 -13z"/>
<path d="M911 334 c0 -11 3 -14 6 -6 3 7 2 16 -1 19 -3 4 -6 -2 -5 -13z"/>
</g>
</svg>
