<?xml version="1.0" standalone="no"?>
<!DOCTYPE svg PUBLIC "-//W3C//DTD SVG 20010904//EN"
 "http://www.w3.org/TR/2001/REC-SVG-20010904/DTD/svg10.dtd">
<svg version="1.0" xmlns="http://www.w3.org/2000/svg"
 width="147.000000pt" height="147.000000pt" viewBox="0 0 147.000000 147.000000"
 preserveAspectRatio="xMidYMid meet">

<g transform="translate(0.000000,147.000000) scale(0.100000,-0.100000)"
fill="#000000" stroke="none">
<path d="M305 1200 c-108 -8 -138 -16 -172 -49 -63 -60 -76 -149 -70 -465 2
-146 9 -256 16 -279 21 -65 73 -114 139 -129 79 -18 988 -18 1047 0 80 25 118
78 136 193 17 113 7 540 -15 600 -21 57 -68 103 -121 119 -48 14 -806 22 -960
10z m466 -350 c94 -49 176 -90 180 -90 29 0 -11 -25 -170 -107 -98 -51 -181
-93 -185 -93 -3 0 -6 86 -6 190 0 105 2 190 5 190 2 0 82 -40 176 -90z"/>
</g>
</svg>
